<svg width="534" height="549" viewBox="0 0 534 549" fill="none" xmlns="http://www.w3.org/2000/svg">
<g opacity="0.27">
<path d="M116.395 325.565C142.21 310.111 168.994 299.312 196.775 293.193C213.228 289.689 239.708 285.583 276.297 280.877C312.859 276.17 338.813 272.509 354.185 269.842C383.573 264.56 409.055 257.813 430.605 249.577C459.411 238.568 480.877 226.435 494.948 213.177C495.835 212.341 496.638 211.452 497.469 210.589C496.444 210.118 495.419 209.674 494.394 209.177C489.215 206.719 483.841 203.712 478.329 200.966C472.319 207.059 463.649 212.524 452.237 217.283C436.615 223.742 413.986 229.311 384.321 233.966C365.985 236.842 341.555 239.875 311.059 243.065C280.563 246.256 258.986 248.844 246.3 250.832C223.643 254.388 201.678 259.409 180.378 265.92C155.865 273.503 129.773 287.048 102.102 306.555C81.4118 321.12 66.1223 333.959 56.2063 345.072C55.0707 337.018 54.2674 329.749 53.8243 323.29C53.3811 316.831 53.1318 310.817 53.0764 305.3C52.8548 277.503 56.8434 251.956 65.0421 228.658C73.2131 205.359 86.5637 184.623 105.038 166.476C124.843 147.021 147.722 132.168 173.675 121.918C199.628 111.668 228.102 106.438 259.124 106.229C279.067 106.098 296.877 108.844 312.582 114.466C331.251 121.134 340.613 130.312 340.696 141.974C340.696 142.393 340.696 143.151 340.696 144.197C340.696 144.825 340.558 145.583 340.308 146.42C339.283 153.218 336.486 158.866 331.916 163.338C330.032 165.273 326.404 167.731 321.03 170.738C318.62 172.019 317.402 173.301 317.402 174.582C317.402 175.863 318.62 176.909 321.058 177.746C324.049 179.419 327.567 180.622 331.611 181.328C335.655 182.06 340.391 182.4 345.792 182.348C346.596 182.348 348.092 182.348 350.252 182.322C351.858 182.322 353.216 182.191 354.296 181.982C367.785 180.204 378.421 175.758 386.204 168.724C393.988 161.664 397.838 153.271 397.755 143.491C397.616 124.376 383.989 109.21 356.927 97.9136C332.83 87.8986 303.94 82.9827 270.204 83.218C193.867 83.741 129.302 107.301 76.4815 153.924C25.018 199.475 -0.464465 253.368 0.00640726 315.55C0.532676 385.812 25.932 442.528 76.2322 485.7C125.701 528.244 189.74 549.241 268.32 548.718C317.18 548.379 359.531 540.246 395.345 524.296C434.649 506.854 454.176 484.628 453.982 457.668C453.899 447.68 449.19 439.234 439.856 432.278C432.987 427.231 425.868 424.303 418.501 423.518C416.063 423.518 414.457 423.963 413.653 424.826C412.85 425.688 412.85 426.734 413.653 428.016C415.038 431.415 416.617 435.364 418.39 439.913C420.19 444.463 421.104 449.824 421.16 455.969C421.298 475.057 408.058 490.537 381.44 502.409C354.822 514.254 322.083 520.321 283.25 520.582C229.016 520.948 180.073 504.292 136.393 470.638C97.0614 440.332 73.0469 406.103 64.4051 367.952C77.5341 352.786 94.8455 338.665 116.339 325.565H116.395Z" fill="url(#paint0_linear_12_74)"/>
<path d="M464.231 70.5357C416.617 26.1352 353.548 2.70577 274.996 0.221646C226.164 -1.32112 183.508 5.18997 147.029 19.7548C107.033 35.6793 86.5361 57.1214 85.5667 84.0807C85.2066 94.0433 89.5553 102.699 98.6126 109.968C105.26 115.276 112.268 118.466 119.58 119.538C122.018 119.617 123.652 119.251 124.483 118.414C125.314 117.577 125.369 116.531 124.594 115.224C123.375 111.772 121.962 107.771 120.356 103.143C118.749 98.5149 118.085 93.1543 118.278 86.9833C118.943 67.8948 132.848 52.9375 159.937 42.112C187.053 31.2864 220.015 26.5011 258.82 27.7301C313.025 29.4298 361.221 47.9433 403.405 83.244C440.355 114.126 440.133 106.02 470.269 185.381C472.457 189.251 473.787 193.487 474.119 197.671C474.95 200.678 475.31 203.738 475.061 206.718C475.698 209.098 476.086 211.53 476.03 213.909C476.75 213.203 477.526 212.471 478.218 211.765C479.022 219.845 479.493 227.141 479.686 233.626C479.853 240.11 479.853 246.099 479.659 251.616C478.662 279.412 473.593 304.776 464.425 327.761C455.257 350.72 441.047 370.933 421.797 388.374C401.162 407.044 377.673 421.008 351.305 430.264C324.936 439.521 296.268 443.653 265.246 442.685C245.303 442.057 227.631 438.632 212.176 432.409C193.812 425.035 184.838 415.516 185.253 403.854C185.253 403.436 185.281 402.677 185.336 401.631C185.336 401.004 185.53 400.246 185.807 399.409C187.137 392.662 190.156 387.119 194.92 382.804C196.886 380.948 200.598 378.62 206.11 375.823C208.575 374.62 209.849 373.391 209.877 372.109C209.905 370.828 208.741 369.73 206.359 368.815C203.451 367.01 199.989 365.703 195.972 364.814C191.956 363.951 187.247 363.428 181.846 363.245C181.043 363.219 179.547 363.167 177.387 363.114C175.78 363.062 174.423 363.114 173.315 363.297C159.771 364.579 148.94 368.579 140.853 375.326C132.792 382.072 128.582 390.335 128.222 400.089C127.557 419.177 140.493 434.867 167.055 447.183C190.71 458.113 219.378 464.127 253.059 465.199C329.367 467.605 394.902 446.529 449.634 401.945C503.008 358.408 530.79 305.534 532.978 243.379C535.471 173.17 512.509 115.511 464.12 70.4572L464.231 70.5357Z" fill="url(#paint1_linear_12_74)"/>
</g>
<defs>
<linearGradient id="paint0_linear_12_74" x1="378.307" y1="-79.5327" x2="378.307" y2="385.985" gradientUnits="userSpaceOnUse">
<stop stop-color="#255D9C"/>
<stop offset="0.692308" stop-color="#00254E"/>
</linearGradient>
<linearGradient id="paint1_linear_12_74" x1="438.926" y1="-162.743" x2="438.926" y2="302.641" gradientUnits="userSpaceOnUse">
<stop stop-color="#255D9C"/>
<stop offset="0.692308" stop-color="#00254E"/>
</linearGradient>
</defs>
</svg>
