<?xml version="1.0" encoding="UTF-8"?>
<svg id="Camada_1" data-name="Camada 1" xmlns="http://www.w3.org/2000/svg" viewBox="0 0 1809.7 1560.67">
  <defs>
    <style>
      .cls-1 {
        fill: #1f3c5d;
      }

      .cls-2 {
        fill: #c8831c;
      }
    </style>
  </defs>
  <g>
    <path class="cls-1" d="M344.22,948.08h-88.07v81.69h98.16v24.54h-127.41v-226.57h122.36v24.54h-93.12v71.6h88.07v24.2Z"/>
    <path class="cls-1" d="M428.93,983.04l-23.53,71.27h-30.25l76.98-226.57h35.3l77.32,226.57h-31.26l-24.2-71.27h-80.34ZM503.22,960.18l-22.19-65.21c-5.04-14.79-8.4-28.24-11.77-41.35h-.67c-3.36,13.45-7.06,27.23-11.43,41.01l-22.19,65.55h68.24Z"/>
    <path class="cls-1" d="M593.99,1018.67c13.11,8.07,32.27,14.79,52.44,14.79,29.92,0,47.4-15.8,47.4-38.66,0-21.18-12.1-33.28-42.69-45.05-36.98-13.11-59.84-32.27-59.84-64.21,0-35.3,29.25-61.52,73.28-61.52,23.19,0,40,5.38,50.09,11.09l-8.07,23.87c-7.4-4.04-22.52-10.76-43.03-10.76-30.93,0-42.69,18.49-42.69,33.95,0,21.18,13.78,31.6,45.05,43.7,38.32,14.79,57.82,33.28,57.82,66.56,0,34.96-25.88,65.22-79.34,65.22-21.85,0-45.72-6.39-57.82-14.46l7.4-24.54Z"/>
    <path class="cls-1" d="M814.17,1054.31v-96.14l-71.6-130.43h33.28l31.93,62.53c8.74,17.14,15.46,30.93,22.52,46.73h.67c6.39-14.79,14.12-29.58,22.86-46.73l32.61-62.53h33.28l-75.97,130.09v96.48h-29.58Z"/>
    <path class="cls-1" d="M1054.53,1054.31l-73.95-226.57h31.6l35.3,111.6c9.75,30.59,18.15,58.16,24.2,84.71h.67c6.39-26.22,15.8-54.79,25.88-84.38l38.32-111.94h31.26l-81.01,226.57h-32.27Z"/>
    <path class="cls-1" d="M1221.6,827.74v226.57h-29.25v-226.57h29.25Z"/>
    <path class="cls-1" d="M1268.67,1018.67c13.11,8.07,32.27,14.79,52.44,14.79,29.92,0,47.4-15.8,47.4-38.66,0-21.18-12.1-33.28-42.69-45.05-36.98-13.11-59.84-32.27-59.84-64.21,0-35.3,29.25-61.52,73.28-61.52,23.2,0,40,5.38,50.09,11.09l-8.07,23.87c-7.4-4.04-22.52-10.76-43.03-10.76-30.93,0-42.69,18.49-42.69,33.95,0,21.18,13.78,31.6,45.05,43.7,38.32,14.79,57.82,33.28,57.82,66.56,0,34.96-25.88,65.22-79.33,65.22-21.85,0-45.72-6.39-57.82-14.46l7.4-24.54Z"/>
    <path class="cls-1" d="M1475.07,983.04l-23.53,71.27h-30.25l76.98-226.57h35.3l77.32,226.57h-31.26l-24.2-71.27h-80.34ZM1549.36,960.18l-22.19-65.21c-5.04-14.79-8.41-28.24-11.77-41.35h-.67c-3.36,13.45-7.06,27.23-11.43,41.01l-22.19,65.55h68.24Z"/>
  </g>
  <path class="cls-2" d="M814.02,586.37c17.66-11.2,35.98-19.02,54.98-23.46,11.25-2.54,29.38-5.51,54.39-8.92,25-3.41,42.77-6.07,53.28-7.99,20.11-3.83,37.53-8.72,52.27-14.67,19.71-7.98,34.38-16.78,44.01-26.38.61-.61,1.15-1.25,1.73-1.88-.7-.34-1.41-.67-2.1-1.02-3.55-1.78-7.22-3.96-10.99-5.96-4.11,4.42-10.04,8.37-17.85,11.83-10.68,4.69-26.17,8.72-46.46,12.09-12.55,2.09-29.25,4.29-50.11,6.59-20.86,2.3-35.62,4.18-44.29,5.62-15.5,2.57-30.53,6.21-45.09,10.93-16.77,5.5-34.62,15.32-53.54,29.44-14.15,10.56-24.62,19.86-31.39,27.91-.78-5.84-1.33-11.1-1.64-15.79-.31-4.69-.48-9.03-.51-13.03-.14-20.15,2.58-38.66,8.18-55.54,5.59-16.88,14.71-31.9,27.35-45.06,13.55-14.09,29.2-24.85,46.95-32.28,17.75-7.43,37.23-11.22,58.44-11.37,13.65-.1,25.83,1.89,36.57,5.97,12.76,4.83,19.18,11.48,19.24,19.93,0,.31,0,.85.01,1.62,0,.46-.09,1-.27,1.62-.7,4.93-2.62,9.01-5.73,12.27-1.28,1.39-3.77,3.18-7.44,5.36-1.66.94-2.48,1.86-2.47,2.79,0,.92.84,1.69,2.51,2.29,2.04,1.22,4.45,2.08,7.22,2.6,2.77.52,6.01.77,9.7.74.55,0,1.57-.01,3.05-.02,1.11,0,2.03-.09,2.77-.25,9.23-1.3,16.5-4.5,21.82-9.61,5.32-5.11,7.95-11.2,7.9-18.28-.1-13.84-9.41-24.85-27.92-33.02-16.48-7.26-36.25-10.82-59.31-10.65-52.22.37-96.39,17.45-132.5,51.23-35.2,33.01-52.64,72.04-52.31,117.1.36,50.91,17.74,92,52.14,123.28,33.84,30.83,77.64,46.04,131.39,45.66,33.43-.24,62.39-6.14,86.88-17.69,26.88-12.65,40.25-28.74,40.11-48.27-.05-7.23-3.28-13.36-9.67-18.39-4.7-3.66-9.58-5.77-14.61-6.36-1.66.01-2.77.33-3.32.95-.55.62-.55,1.39.02,2.31.94,2.46,2.02,5.33,3.25,8.63,1.22,3.3,1.85,7.18,1.89,11.64.1,13.84-8.96,25.06-27.16,33.64-18.21,8.59-40.6,12.97-67.17,13.16-37.09.27-70.57-11.8-100.45-36.19-26.91-21.96-43.33-46.76-49.25-74.39,8.97-10.98,20.82-21.22,35.53-30.7Z"/>
  <path class="cls-2" d="M1051.95,401.58c-32.56-32.17-75.71-49.15-129.43-50.95-33.41-1.12-62.59,3.6-87.53,14.15-27.37,11.55-41.38,27.08-42.03,46.6-.24,7.23,2.73,13.48,8.92,18.76,4.55,3.84,9.33,6.16,14.34,6.94,1.66.05,2.78-.22,3.35-.81.57-.6.6-1.37.08-2.31-.84-2.49-1.8-5.41-2.89-8.75-1.09-3.35-1.56-7.25-1.41-11.7.46-13.83,9.97-24.67,28.5-32.51,18.54-7.84,41.09-11.32,67.64-10.43,37.07,1.24,70.04,14.65,98.9,40.23,25.27,22.38,25.11,16.5,45.73,74,1.49,2.8,2.41,5.87,2.63,8.9.57,2.18.81,4.4.64,6.56.44,1.73.7,3.49.67,5.21.5-.52,1.02-1.05,1.49-1.56.55,5.86.87,11.14.99,15.84.12,4.7.11,9.04-.02,13.04-.67,20.13-4.15,38.52-10.43,55.16-6.27,16.64-15.99,31.28-29.15,43.92-14.11,13.53-30.18,23.64-48.22,30.35-18.03,6.7-37.65,9.7-58.86,9-13.64-.46-25.73-2.94-36.29-7.45-12.56-5.35-18.69-12.24-18.41-20.69.01-.31.03-.85.05-1.62.01-.46.13-1,.33-1.6.9-4.9,2.98-8.9,6.22-12.02,1.34-1.34,3.89-3.02,7.65-5.05,1.69-.87,2.55-1.76,2.58-2.68s-.77-1.72-2.41-2.39c-1.99-1.3-4.36-2.26-7.11-2.89-2.75-.63-5.97-1.01-9.66-1.13-.55-.02-1.57-.05-3.05-.1-1.11-.04-2.03,0-2.78.14-9.27.92-16.67,3.83-22.2,8.72-5.52,4.89-8.4,10.87-8.64,17.94-.46,13.83,8.39,25.21,26.56,34.13,16.17,7.93,35.78,12.28,58.83,13.05,52.19,1.74,97.02-13.53,134.47-45.82,36.51-31.55,55.51-69.85,57.02-114.88,1.7-50.88-14-92.64-47.1-125.29Z"/>
</svg>