<svg width="1100" height="300" xmlns="http://www.w3.org/2000/svg" data-name="Camada 1">

 <g>
  <title>Layer 1</title>
  <path id="svg_1" fill="#c8831c" d="m115.7,165.37c11.37,-7.21 23.16,-12.24 35.39,-15.1c7.24,-1.63 18.91,-3.55 35.01,-5.74c16.1,-2.19 27.53,-3.91 34.3,-5.14c12.94,-2.47 24.16,-5.61 33.65,-9.45c12.69,-5.14 22.13,-10.8 28.33,-16.98c0.4,-0.39 0.74,-0.81 1.11,-1.21c-0.45,-0.22 -0.91,-0.43 -1.35,-0.65c-2.29,-1.15 -4.65,-2.55 -7.08,-3.83c-2.65,2.85 -6.47,5.39 -11.49,7.62c-6.88,3.02 -16.85,5.61 -29.91,7.79c-8.08,1.35 -18.83,2.76 -32.26,4.24c-13.43,1.48 -22.93,2.69 -28.51,3.62c-9.98,1.66 -19.66,4 -29.03,7.04c-10.8,3.54 -22.29,9.86 -34.47,18.96c-9.11,6.8 -15.85,12.79 -20.21,17.96c-0.5,-3.76 -0.85,-7.14 -1.05,-10.17c-0.2,-3.02 -0.31,-5.81 -0.33,-8.39c-0.09,-12.97 1.66,-24.89 5.27,-35.76c3.6,-10.87 9.47,-20.54 17.61,-29.01c8.72,-9.07 18.8,-16 30.22,-20.78c11.42,-4.78 23.97,-7.22 37.62,-7.32c8.78,-0.06 16.63,1.22 23.54,3.84c8.22,3.11 12.34,7.39 12.38,12.83c0,0.2 0,0.55 0,1.04c0,0.3 -0.06,0.65 -0.17,1.04c-0.45,3.17 -1.68,5.8 -3.69,7.9c-0.83,0.9 -2.42,2.05 -4.79,3.45c-1.07,0.6 -1.6,1.2 -1.59,1.79s0.54,1.09 1.62,1.47c1.31,0.78 2.86,1.34 4.65,1.67c1.79,0.34 3.87,0.49 6.25,0.48c0.36,0 1.01,0 1.96,-0.01c0.71,0 1.31,-0.06 1.78,-0.16c5.94,-0.83 10.62,-2.9 14.05,-6.19c3.42,-3.29 5.12,-7.21 5.09,-11.77c-0.06,-8.91 -6.06,-16 -17.97,-21.26c-10.61,-4.68 -23.34,-6.96 -38.18,-6.86c-33.62,0.24 -62.05,11.23 -85.3,32.98c-22.66,21.25 -33.89,46.38 -33.68,75.38c0.23,32.77 11.42,59.23 33.57,79.36c21.79,19.85 49.98,29.64 84.59,29.4c21.52,-0.15 40.17,-3.95 55.93,-11.39c17.3,-8.14 25.91,-18.5 25.82,-31.07c-0.03,-4.65 -2.11,-8.6 -6.22,-11.84c-3.03,-2.35 -6.16,-3.72 -9.41,-4.09c-1.07,0 -1.78,0.21 -2.14,0.61c-0.35,0.4 -0.35,0.89 0,1.48c0.61,1.58 1.3,3.43 2.09,5.56c0.79,2.12 1.19,4.62 1.21,7.49c0.06,8.91 -5.77,16.13 -17.49,21.66c-11.72,5.53 -26.13,8.35 -43.24,8.47c-23.88,0.17 -45.43,-7.59 -64.67,-23.3c-17.33,-14.13 -27.89,-30.1 -31.7,-47.89c5.78,-7.07 13.4,-13.66 22.87,-19.77l0.02,0z" class="cls-2"/>
  <path id="svg_2" fill="#c8831c" d="m268.87,46.41c-20.96,-20.71 -48.74,-31.64 -83.32,-32.8c-21.51,-0.72 -40.29,2.32 -56.35,9.11c-17.62,7.43 -26.64,17.43 -27.06,30c-0.16,4.65 1.76,8.68 5.74,12.08c2.93,2.47 6.01,3.96 9.23,4.47c1.07,0.04 1.79,-0.14 2.16,-0.52c0.37,-0.39 0.39,-0.88 0.05,-1.48c-0.54,-1.6 -1.16,-3.48 -1.86,-5.64c-0.7,-2.15 -1.01,-4.66 -0.91,-7.53c0.3,-8.9 6.42,-15.88 18.35,-20.93c11.94,-5.05 26.45,-7.29 43.55,-6.71c23.86,0.8 45.09,9.43 63.67,25.9c16.27,14.41 16.17,10.63 29.44,47.64c0.96,1.8 1.55,3.78 1.69,5.73c0.37,1.4 0.52,2.83 0.41,4.22c0.28,1.11 0.45,2.24 0.43,3.36c0.32,-0.33 0.66,-0.67 0.96,-1c0.35,3.77 0.56,7.17 0.64,10.2c0.08,3.02 0.07,5.82 -0.01,8.39c-0.43,12.96 -2.67,24.8 -6.71,35.51c-4.04,10.71 -10.3,20.13 -18.77,28.27c-9.08,8.71 -19.43,15.22 -31.04,19.54c-11.61,4.31 -24.24,6.25 -37.89,5.79c-8.78,-0.29 -16.57,-1.89 -23.36,-4.79c-8.08,-3.44 -12.03,-7.88 -11.85,-13.32c0,-0.2 0.02,-0.55 0.04,-1.04c0,-0.3 0.08,-0.64 0.21,-1.03c0.58,-3.15 1.92,-5.73 4.01,-7.74c0.86,-0.86 2.51,-1.95 4.93,-3.25c1.09,-0.56 1.64,-1.13 1.66,-1.73s-0.5,-1.11 -1.55,-1.54c-1.28,-0.84 -2.81,-1.46 -4.58,-1.86c-1.77,-0.41 -3.84,-0.65 -6.22,-0.73c-0.36,-0.01 -1.01,-0.03 -1.96,-0.07c-0.71,-0.02 -1.31,0 -1.79,0.09c-5.97,0.59 -10.73,2.46 -14.29,5.61c-3.55,3.15 -5.41,7 -5.56,11.55c-0.3,8.91 5.4,16.23 17.1,21.97c10.41,5.1 23.03,7.9 37.87,8.4c33.6,1.12 62.46,-8.71 86.57,-29.5c23.5,-20.31 35.74,-44.97 36.71,-73.96c1.1,-32.75 -9.01,-59.64 -30.32,-80.66l-0.02,0z" class="cls-2"/>
  <g id="svg_3">
   <path id="svg_4" fill="#1f3c5d" d="m384.94,151.17l-46.49,0l0,43.12l51.81,0l0,12.95l-67.25,0l0,-119.59l64.58,0l0,12.95l-49.15,0l0,37.79l46.49,0l0,12.78l0.01,0z" class="cls-1"/>
   <path id="svg_5" fill="#1f3c5d" d="m429.65,169.63l-12.42,37.62l-15.97,0l40.63,-119.59l18.63,0l40.81,119.59l-16.5,0l-12.77,-37.62l-42.41,0zm39.22,-12.07l-11.71,-34.42c-2.66,-7.81 -4.44,-14.9 -6.21,-21.82l-0.35,0c-1.77,7.1 -3.73,14.37 -6.03,21.65l-11.71,34.6l36.02,0l-0.01,-0.01z" class="cls-1"/>
   <path id="svg_6" fill="#1f3c5d" d="m516.77,188.43c6.92,4.26 17.03,7.81 27.68,7.81c15.79,0 25.02,-8.34 25.02,-20.4c0,-11.18 -6.39,-17.57 -22.53,-23.78c-19.52,-6.92 -31.58,-17.03 -31.58,-33.89c0,-18.63 15.44,-32.47 38.68,-32.47c12.24,0 21.11,2.84 26.44,5.86l-4.26,12.6c-3.9,-2.13 -11.89,-5.68 -22.71,-5.68c-16.32,0 -22.53,9.76 -22.53,17.92c0,11.18 7.27,16.68 23.78,23.07c20.23,7.81 30.52,17.57 30.52,35.13c0,18.45 -13.66,34.42 -41.87,34.42c-11.53,0 -24.13,-3.37 -30.52,-7.63l3.9,-12.95l-0.02,-0.01z" class="cls-1"/>
   <path id="svg_7" fill="#1f3c5d" d="m632.99,207.24l0,-50.75l-37.79,-68.84l17.57,0l16.86,33c4.61,9.05 8.16,16.32 11.89,24.66l0.36,0c3.37,-7.81 7.45,-15.61 12.06,-24.66l17.21,-33l17.57,0l-40.1,68.67l0,50.92l-15.61,0l-0.02,0z" class="cls-1"/>
   <path id="svg_8" fill="#1f3c5d" d="m759.85,207.24l-39.03,-119.59l16.68,0l18.63,58.91c5.14,16.15 9.58,30.7 12.77,44.71l0.35,0c3.37,-13.84 8.34,-28.92 13.66,-44.53l20.23,-59.08l16.5,0l-42.76,119.59l-17.03,0l0,-0.01z" class="cls-1"/>
   <path id="svg_9" fill="#1f3c5d" d="m848.04,87.65l0,119.59l-15.44,0l0,-119.59l15.44,0z" class="cls-1"/>
   <path id="svg_10" fill="#1f3c5d" d="m872.88,188.43c6.92,4.26 17.03,7.81 27.68,7.81c15.79,0 25.02,-8.34 25.02,-20.4c0,-11.18 -6.39,-17.57 -22.53,-23.78c-19.52,-6.92 -31.58,-17.03 -31.58,-33.89c0,-18.63 15.44,-32.47 38.68,-32.47c12.24,0 21.11,2.84 26.44,5.86l-4.26,12.6c-3.9,-2.13 -11.89,-5.68 -22.71,-5.68c-16.32,0 -22.53,9.76 -22.53,17.92c0,11.18 7.27,16.68 23.78,23.07c20.23,7.81 30.52,17.57 30.52,35.13c0,18.45 -13.66,34.42 -41.87,34.42c-11.53,0 -24.13,-3.37 -30.52,-7.63l3.9,-12.95l-0.02,-0.01z" class="cls-1"/>
   <path id="svg_11" fill="#1f3c5d" d="m981.82,169.63l-12.42,37.62l-15.97,0l40.63,-119.59l18.63,0l40.81,119.59l-16.5,0l-12.77,-37.62l-42.41,0zm39.21,-12.07l-11.71,-34.42c-2.66,-7.81 -4.44,-14.9 -6.21,-21.82l-0.35,0c-1.78,7.1 -3.73,14.37 -6.03,21.65l-11.71,34.6l36.02,0l-0.01,-0.01z" class="cls-1"/>
  </g>
 </g>
</svg>