<?xml version="1.0" encoding="UTF-8" standalone="no"?><!DOCTYPE svg PUBLIC "-//W3C//DTD SVG 1.1//EN" "http://www.w3.org/Graphics/SVG/1.1/DTD/svg11.dtd"><svg width="100%" height="100%" viewBox="0 0 1600 1600" version="1.1" xmlns="http://www.w3.org/2000/svg" xmlns:xlink="http://www.w3.org/1999/xlink" xml:space="preserve" xmlns:serif="http://www.serif.com/" style="fill-rule:evenodd;clip-rule:evenodd;stroke-linejoin:round;stroke-miterlimit:2;"><g id="Fundo"><path d="M443.482,181.2l16.641,52.397c-0.277,0.247 -0.554,0.494 -0.831,0.742l-15.811,-53.139Z" style="fill-opacity:1;"/><g><g><path d="M1175.139,196.77c45.663,51.864 67.563,54.3 127.132,176.332c21.27,43.574 46.259,138.934 47.234,194.041c0.456,25.761 21.419,154.681 -164.544,427.514c-143.565,210.629 -212.123,263.123 -192.892,266.662c0.416,0.077 334.98,37.254 276.903,167.632c-64.315,144.381 -796.467,170.335 -928.407,11.966c-47.021,-56.44 8.836,-132.883 188.868,-165.827c35.98,-6.584 35.776,-6.151 71.914,-12.232c22.918,-3.857 4.469,-14.962 -48.246,-81.248c-335.44,-421.795 -317.552,-575.584 -288.656,-704.958c69.977,-313.308 429.64,-548.281 795.728,-361.088c40.278,20.595 106.224,74.112 114.968,81.208l-44.028,31.415c-50.782,-49.082 -126.915,-85.103 -161.176,-97.489c-233.251,-84.327 -407.041,30.865 -430.182,43.915c-79.2,44.665 -157.446,141.933 -199.736,246.075c-82.043,202.035 -22.195,338.064 128.785,563.163c114.465,170.658 321.992,400.036 329.814,401.169c14.676,2.126 237.176,-265.022 292.051,-343.959c124.26,-178.748 243.405,-346.85 197.877,-545.647c-40.323,-176.07 -147.913,-257.925 -157.434,-267.226l44.028,-31.415l43.568,1215.257c37.774,-59.054 -228.288,-105.401 -270.253,-103.902c-9.78,0.349 -8.77,3.453 -77.947,77.991c-53.938,58.118 -63.246,77.93 -90.96,53.106c-41.932,-37.561 -113.504,-133.602 -131.127,-131.733c-186.373,19.766 -308.868,74.095 -261.251,111.372c148.041,115.895 742.426,98.339 831.539,-6.833l-43.568,-1215.257Z" style="fill:#002455;fill-opacity:0.99;"/></g></g><path d="M1087.389,912.496c-319.403,284.313 -799.505,-9.157 -698.466,-420.347c71.556,-291.206 466.918,-449.009 725.323,-178.255c142.68,149.498 159.193,430.323 -26.858,598.601l-46.5,-24.983c4.312,-3.962 8.806,-7.723 13.119,-11.685c155.536,-142.889 156.092,-379.524 27.762,-523.342c-189.901,-212.819 -508.991,-138.244 -614.323,74.213c-182.393,367.892 254.026,717.533 573.442,460.814l46.5,24.983Z" style="fill:url(#_Linear1);"/></g><path d="M903.499,419.378c0.506,0.42 0.698,1.145 1.203,1.565c2.41,2.001 2.841,1.752 109.262,1.752c48.119,0 52.2,-0.563 53.459,2.872c0.616,1.681 -2.16,1.705 -2.165,358.24c-0,11.059 1.977,15.556 -9.044,15.564c-41.557,0.032 -516.253,0.393 -519.457,-0.061c-6.449,-0.913 -4.72,-11.529 -4.72,-15.503c-0.007,-357.73 -0.076,-357.901 0.953,-359.368c1.402,-1.999 2.055,-1.744 95.781,-1.744c61.203,0 61.802,0.362 64.138,-2.11c4.017,-4.251 23.257,-47.678 27.844,-49.506c1.623,-0.647 1.639,-0.732 146.589,-0.707c10.892,0.002 11.27,1.443 16.311,11.206c15.99,30.97 15.724,31.067 19.846,37.8l-22.458,37.621c-1.378,-2.225 -2.487,-4.015 -15.392,-28.874c-8.986,-17.309 -8.294,-20.194 -18.184,-20.223c-8.157,-0.023 -99.418,-0.285 -101.961,0.115c-4.521,0.712 -4.536,1.789 -25.602,42.614c-4.855,9.409 -5.985,9.583 -16.577,9.593c-39.762,0 -79.524,0 -119.286,0c-10.374,0 -14.697,-2.1 -14.712,8.351c-0.046,33.403 -0.982,36.205 4.844,36.651c6.105,0.467 157.688,0.066 171.4,0.03c11.51,-0.03 11.323,-0.99 22.399,-4.041c38.362,-10.566 65.244,1.73 72.271,3.641c0.683,0.186 0.693,0.512 171.238,0.512c11.644,-0 16.499,2.414 16.501,-9.275c0.004,-30.039 0.956,-34.613 -3.908,-35.709c-1.648,-0.371 -133.798,-0.031 -136.808,-0.199c-3.644,-0.204 -3.353,-0.907 -6.223,-3.187l22.458,-37.621l-73.781,298.141c-37.561,8.647 -49.079,3.436 -71.87,-3.188c-2.959,-0.86 -2.997,-0.812 -176.294,-0.804c-8.885,0 -12.193,-1.185 -12.238,7.737c-0.177,34.484 -0.97,34.667 0.326,37.356c1.868,3.875 3.148,3.222 46.704,3.222c406.725,0 406.72,0.023 407.647,-0.187c4.977,-1.124 3.99,-5.867 3.987,-35.391c-0.001,-7.072 1.491,-12.492 -6.552,-12.732c-13.117,-0.39 -160.05,-0.038 -173.967,-0.004c-8.129,0.019 -10.012,1.31 -17.743,3.99l73.781,-298.141l-52.254,243.158c45.688,-52.05 10.323,-101.548 -11.729,-115.662c-66.825,-42.769 -142.67,31.966 -105.929,99.083c16.999,31.053 68.476,60.255 117.658,16.579l52.254,-243.158l4.855,211.573c-7.551,31.487 -11.454,29.916 -16.514,40.122c-3.384,6.825 7.26,4.931 10.294,4.927c122.169,-0.155 123.406,0.852 124.814,-1.862c1.168,-2.251 1.032,-2.418 1.031,-115.497c-0,-10.774 2.525,-15.849 -9.042,-15.856c-114.597,-0.072 -114.547,-0.678 -124.491,-0.11c-11.432,0.653 9.954,11.052 15.494,55.958c1.496,12.13 -1.197,29.759 -1.587,32.317l-4.855,-211.573l-211.355,156.392c8.457,-26.544 21.227,-33.104 8.785,-33.08c-39.865,0.078 -39.798,0.095 -79.613,0.095c-49.002,0 -50.806,-0.666 -51.75,3.47c-0.798,3.495 -0.296,112.668 -0.251,122.465c0.04,8.792 3.492,7.278 12.239,7.279c122.906,0.006 122.997,0.039 123.669,-0.535c3.41,-2.905 -5.033,-8.797 -11.385,-26.926c-12.536,-35.777 -5.518,-58.692 -1.694,-72.769l211.355,-156.392Z" style="fill:url(#_Linear2);"/><defs><linearGradient id="_Linear1" x1="0" y1="0" x2="1" y2="0" gradientUnits="userSpaceOnUse" gradientTransform="matrix(1077.646808,-1294.413282,1294.413282,1077.646808,203.448338,1501.811747)"><stop offset="0" style="stop-color:#000;stop-opacity:1"/><stop offset="1" style="stop-color:#004aad;stop-opacity:1"/></linearGradient><linearGradient id="_Linear2" x1="0" y1="0" x2="1" y2="0" gradientUnits="userSpaceOnUse" gradientTransform="matrix(1077.646808,-1294.413282,1294.413282,1077.646808,203.448338,1501.811747)"><stop offset="0" style="stop-color:#000;stop-opacity:1"/><stop offset="1" style="stop-color:#004aad;stop-opacity:1"/></linearGradient></defs></svg>