<?xml version="1.0" encoding="UTF-8" standalone="no"?><!DOCTYPE svg PUBLIC "-//W3C//DTD SVG 1.1//EN" "http://www.w3.org/Graphics/SVG/1.1/DTD/svg11.dtd"><svg width="100%" height="100%" viewBox="0 0 1600 1600" version="1.1" xmlns="http://www.w3.org/2000/svg" xmlns:xlink="http://www.w3.org/1999/xlink" xml:space="preserve" xmlns:serif="http://www.serif.com/" style="fill-rule:evenodd;clip-rule:evenodd;stroke-linejoin:round;stroke-miterlimit:2;"><g id="Fundo"><path d="M443.482,181.2l16.641,52.397c-0.277,0.247 -0.554,0.494 -0.831,0.742l-15.811,-53.139Z" style="fill-opacity:1;"/><g><g><path d="M1175.139,196.77c45.663,51.864 67.563,54.3 127.132,176.332c21.27,43.574 46.259,138.934 47.234,194.041c0.456,25.761 21.419,154.681 -164.544,427.514c-143.565,210.629 -212.123,263.123 -192.892,266.662c0.416,0.077 334.98,37.254 276.903,167.632c-64.315,144.381 -796.467,170.335 -928.407,11.966c-47.021,-56.44 8.836,-132.883 188.868,-165.827c35.98,-6.584 35.776,-6.151 71.914,-12.232c22.918,-3.857 4.469,-14.962 -48.246,-81.248c-335.44,-421.795 -317.552,-575.584 -288.656,-704.958c69.977,-313.308 429.64,-548.281 795.728,-361.088c40.278,20.595 106.224,74.112 114.968,81.208l-44.028,31.415c-50.782,-49.082 -126.915,-85.103 -161.176,-97.489c-233.251,-84.327 -407.041,30.865 -430.182,43.915c-79.2,44.665 -157.446,141.933 -199.736,246.075c-82.043,202.035 -22.195,338.064 128.785,563.163c114.465,170.658 321.992,400.036 329.814,401.169c14.676,2.126 237.176,-265.022 292.051,-343.959c124.26,-178.748 243.405,-346.85 197.877,-545.647c-40.323,-176.07 -147.913,-257.925 -157.434,-267.226l44.028,-31.415l43.568,1215.257c37.774,-59.054 -228.288,-105.401 -270.253,-103.902c-9.78,0.349 -8.77,3.453 -77.947,77.991c-53.938,58.118 -63.246,77.93 -90.96,53.106c-41.932,-37.561 -113.504,-133.602 -131.127,-131.733c-186.373,19.766 -308.868,74.095 -261.251,111.372c148.041,115.895 742.426,98.339 831.539,-6.833l-43.568,-1215.257Z" style="fill:#002455;fill-opacity:0.99;"/></g></g><path d="M1087.389,912.496c-319.403,284.313 -799.505,-9.157 -698.466,-420.347c71.556,-291.206 466.918,-449.009 725.323,-178.255c142.68,149.498 159.193,430.323 -26.858,598.601l-46.5,-24.983c4.312,-3.962 8.806,-7.723 13.119,-11.685c155.536,-142.889 156.092,-379.524 27.762,-523.342c-189.901,-212.819 -508.991,-138.244 -614.323,74.213c-182.393,367.892 254.026,717.533 573.442,460.814l46.5,24.983Z" style="fill:url(#_Linear1);"/></g><path d="M1112.275,742.27c0.713,1.053 7.427,10.969 -4.045,15.371c-6.944,2.664 -89.828,9.174 -91.308,12.76c-3.06,7.414 7.069,47.525 -10.957,46.765c-11.188,-0.471 -25.215,-34.808 -29.381,-28.851c-13.939,19.931 -20.29,44.475 -33.978,37.515c-11.313,-5.753 0.217,-47.509 -8.087,-46.764c-53.506,4.805 -56.435,11.029 -97.464,6.473c-77.882,-8.649 -182.142,-21.603 -197.969,-23.57c-11.249,-1.398 -106.032,-12.163 -115.253,-13.21c-42.241,-4.797 -52.956,-103.362 -20.03,-147.34c3.692,-4.931 -12.446,-16.404 -8.536,-58.016c1.715,-18.249 12.622,-28.128 9.374,-34.37c-22.767,-43.752 -3.568,-91.749 15.757,-94.54c13.483,-1.947 238.194,-28.959 241.998,-29.034c19.062,-0.378 21.353,-0.423 236.955,25.532c100.394,12.086 100.691,10.606 108.937,13.63c7.36,2.699 8.155,13.522 1.132,17.292c-0.144,0.077 -12.063,1.014 -14.086,29.969c-1.466,20.982 4.919,37.572 9.927,39.974c7.165,3.437 9.664,2.474 9.541,10.351c-0.155,9.982 -10.378,6.774 -14.428,16.355c-11.388,26.942 -1.713,58.929 4.495,61.745c6.985,3.168 9.292,1.994 9.893,9.564c1.041,13.117 -12.259,5.186 -20.568,23.001c-18.251,39.136 -5.633,101.196 10.623,105.794c4.151,1.174 4.205,0.939 7.457,3.602l-258.164,-89.379c-27.063,35.404 -12.977,117.487 7.387,114.936c71.961,-9.017 76.031,-6.715 76.058,-13.46c0.191,-49.114 1.744,-49.533 -0.533,-53.122c-0.194,-0.307 -15.654,-3.211 -10.746,-15.112c3.662,-8.879 30.788,-7.168 82.859,-14.869c0.463,-0.068 21.677,-5.513 21.859,8.412c0.165,12.638 -14.371,6.778 -14.442,14.588c-0.038,4.154 -0.442,48.664 -0.109,51.931c0.406,3.979 2.677,2.499 43.016,-2.025c13.311,-1.493 20.619,-1.922 18.882,-5.788c-33.19,-73.864 6.889,-115.094 -5.84,-113.983c-8.731,0.762 -8.531,1.46 -108.739,13.371c-4.942,0.587 -46.601,5.539 -61.797,7.149c-42.418,4.494 -44.586,5.881 -47.856,7.972l258.164,89.379l-539.016,-271.995c-0.186,23.918 4.177,37.761 7.423,38.617c1.527,0.403 19.063,5.028 19.732,0.396c0.075,-0.522 -10.448,-57.537 9.445,-55.874c16.279,1.361 2.232,22.657 11.096,57.494c1.386,5.446 22.725,4.792 87.836,13.235c9.474,1.228 61.8,8.013 118.615,13.781c4.593,0.466 7.374,1.821 6.115,-2.655c-13.09,-46.525 9.351,-64.221 -1.244,-65.343c-85.537,-9.06 -85.128,-11.32 -170.581,-20.098c-27.314,-2.806 -79.577,-10.922 -82.166,-8.277c-3.962,4.048 -6.051,26.382 -6.27,28.724l539.016,271.995l-381.532,-52.821c1.648,-16.715 1.482,-23.935 8.739,-47.167c2.112,-6.761 -1.065,-6.501 -8.003,-7.288c-111.981,-12.709 -111.911,-13.2 -121.662,-14.168c-5.843,-0.58 -24.699,38.991 -13.233,94.624c5.399,26.195 11.122,23.367 13.297,23.609c126.081,14.036 130.192,16.785 129.256,12.139c-2.97,-14.734 -7.985,-14.089 -8.394,-61.749l381.532,52.821l-589.282,-152.724c4.963,3.267 34.213,4.907 88.494,11.753c8.928,1.126 109.641,13.828 111.754,12.785c3.882,-1.917 -6.48,-24.098 0.027,-52.95c2.998,-13.295 22.362,-14.204 18.889,6.392c-0.63,3.737 -4.715,27.962 4.055,47.204c0.556,1.219 1.584,3.475 16.202,4.25c7.964,0.422 -6.268,-23.474 5.209,-62.565c2.472,-8.421 -2.867,-5.95 -11.628,-7.143c-9.468,-1.289 -9.57,0.144 -118.665,-13.552c-41.397,-5.197 -41.331,-4.946 -82.784,-9.803c-25.075,-2.938 -30.66,-7.026 -35.024,3.06c-7.111,16.435 -7.509,46.684 3.47,60.569l589.282,152.724l-254.894,-267.981c-17.194,29.933 -4.597,67.754 4.054,67.19c12.355,-0.806 125.439,-14.989 136.339,-16.356c81.803,-10.26 85.218,-8.699 84.153,-12.58c-5.522,-20.115 -8.014,-19.86 -6.434,-40.677c1.263,-16.638 6.535,-24.745 2.039,-25.072c-0.334,-0.024 -161.975,19.52 -172.202,20.614c-44.267,4.732 -44.603,4.928 -47.95,6.882l254.894,267.981l-255.015,-113.617c6.418,3.138 21.226,-1.618 112.873,-11.421c8.732,-0.934 8.555,-1.859 108.966,-13.319c7.839,-0.895 -4.449,-10.617 -3.754,-39.508c0.446,-18.542 6.992,-29.236 2.018,-28.86c-8.219,0.621 -88.032,10.613 -110.344,13.018c-8.579,0.925 -95.24,10.266 -107.057,13.158c-5.403,1.322 -20.735,34.403 -2.703,66.931l255.015,113.617l-500.702,-320.296c-0.478,0.825 -0.957,1.651 -1.435,2.476c2.592,0.47 2.621,0.124 71.017,7.571c77.472,8.435 159.869,18.907 173.755,20.672c6.479,0.823 7.005,0.89 81.168,-8.765c40.479,-5.27 40.332,-5.245 81.002,-8.548c0.306,-0.025 5.449,-2.851 -1.544,-3.509c-213.741,-20.11 -224.194,-31.427 -267.785,-25.238c-32.497,4.614 -76.33,8.694 -97.308,12.048c-14.635,2.339 -35.753,3.169 -38.871,3.292l500.702,320.296l-310.112,17.965c5.233,2.887 26.334,4.37 26.809,3.871c1.685,-1.775 -15.294,-32.057 -7.378,-82.656c1.988,-12.708 11.835,-32.44 10.435,-34.035c-0.151,-0.172 -28.338,-5.75 -31.21,-2.266c-0.781,0.947 -8.909,19.514 -10.481,41.057c-3.554,48.711 10.786,71.672 11.825,74.029l310.112,-17.965l-594.267,-17.751c8.46,7.2 9.311,5.612 20.376,5.963c8.551,0.272 -3.696,-5.447 -3.952,-52.416c-0.308,-56.349 17.593,-63.305 8.812,-64.967c-19.463,-3.685 -22.484,-0.788 -23.862,0.534c-10.824,10.378 -27.063,68.497 -1.374,110.885l594.267,17.751l-329.562,-155.118c-0.157,34.152 4.542,34.781 7.391,35.162c3.357,0.449 40.642,5.441 42.046,4.936c4.313,-1.55 -6.816,-18.889 -0.907,-51.337c0.989,-5.431 6.301,-15.993 3.032,-17.169c-2.737,-0.985 -2.904,0.108 -36.084,-4.479c-7.085,-0.98 -8.436,-1.215 -10.936,5.477c-3.823,10.233 -4.449,25.188 -4.541,27.409l329.562,155.118l-126.652,21.205c8.932,11.919 8.154,12.507 9.341,12.987c4.29,1.734 1.912,-2.52 1.912,-57.81c0,-16.274 0.957,-24.556 -2.338,-25.403c-0.35,-0.09 -32.689,3.406 -34.188,3.801c-5.422,1.431 -2.568,3.979 -2.951,71.931c-0.048,8.486 -1.843,10.633 1.576,10.134c4.978,-0.726 7.952,-32.486 26.648,-15.64l126.652,-21.205l-558.497,-265.534c0.668,-35.032 5.597,-34.58 4.859,-37.514c-0.625,-2.484 -1.479,-2.246 -31.595,-5.215c-12.912,-1.273 -14.921,41.89 -9.766,55.725c3.575,9.595 3.71,12.155 12.932,13.345c24.347,3.139 27.009,3.828 26.469,-0.379c-1.677,-13.06 -2.116,-12.908 -2.898,-25.961l558.497,265.534l-558.489,-73.931c-0.013,5.147 -0.112,45.632 10.199,63.53c1.772,3.076 18.059,5.597 16.456,-0.201c-19.741,-71.389 7.979,-110.074 3.315,-113.55c-0.098,-0.073 -14.066,-2.491 -15.96,-1.412c-2.135,1.217 -9.869,19.6 -11.839,32.088c-2.038,12.918 -2.124,18.963 -2.169,19.545l558.489,73.931l-360.414,-67.565c-0.679,6.353 -5.264,49.226 9.686,79.274c2.103,4.227 17.842,6.312 17.244,1.999c-0.639,-4.608 -16.77,-40.421 -3.662,-97.459c0.953,-4.147 5.971,-15.724 3.459,-17.694c-0.527,-0.414 -15.633,-3.295 -17.271,0.206c-5.251,11.223 -8.941,30.923 -9.456,33.674l360.414,67.565Z" style="fill:url(#_Linear2);"/><path d="M385.9,380.615c-0.921,1.589 -1.842,3.178 -2.762,4.767c0.023,-3.19 0.166,-3.158 2.762,-4.767Z" style="fill-opacity:0.71;"/><defs><linearGradient id="_Linear1" x1="0" y1="0" x2="1" y2="0" gradientUnits="userSpaceOnUse" gradientTransform="matrix(1077.646808,-1294.413282,1294.413282,1077.646808,203.448338,1501.811747)"><stop offset="0" style="stop-color:#000;stop-opacity:1"/><stop offset="1" style="stop-color:#004aad;stop-opacity:1"/></linearGradient><linearGradient id="_Linear2" x1="0" y1="0" x2="1" y2="0" gradientUnits="userSpaceOnUse" gradientTransform="matrix(-1464.218933,1183.633598,-1183.633598,-1464.218933,1464.218933,125.180313)"><stop offset="0" style="stop-color:#000;stop-opacity:1"/><stop offset="1" style="stop-color:#003275;stop-opacity:1"/></linearGradient></defs></svg>