<svg xmlns="http://www.w3.org/2000/svg" xmlns:xlink="http://www.w3.org/1999/xlink" width="2800" zoomAndPan="magnify" viewBox="0 0 2100 599.999999" height="800" preserveAspectRatio="xMidYMid meet" version="1.0"><path fill="#c8831c" d="M 135.324219 348.058594 C 158.742188 333.207031 183.027344 322.847656 208.21875 316.957031 C 223.128906 313.601562 247.167969 309.644531 280.328125 305.132812 C 313.488281 300.625 337.03125 297.082031 350.976562 294.546875 C 377.628906 289.460938 400.738281 282.992188 420.285156 275.082031 C 446.425781 264.496094 465.867188 252.839844 478.636719 240.109375 C 479.460938 239.304688 480.164062 238.441406 480.925781 237.617188 C 479.996094 237.164062 479.050781 236.730469 478.144531 236.277344 C 473.425781 233.910156 468.566406 231.027344 463.5625 228.390625 C 458.101562 234.257812 450.234375 239.492188 439.894531 244.085938 C 425.722656 250.304688 405.1875 255.640625 378.289062 260.128906 C 361.644531 262.910156 339.503906 265.8125 311.839844 268.863281 C 284.179688 271.910156 264.613281 274.402344 253.117188 276.320312 C 232.5625 279.738281 212.625 284.558594 193.324219 290.820312 C 171.082031 298.109375 147.414062 311.128906 122.328125 329.871094 C 103.5625 343.878906 89.679688 356.214844 80.699219 366.863281 C 79.671875 359.121094 78.949219 352.15625 78.539062 345.917969 C 78.125 339.695312 77.898438 333.949219 77.859375 328.636719 C 77.671875 301.921875 81.277344 277.371094 88.710938 254.980469 C 96.128906 232.589844 108.21875 212.671875 124.984375 195.226562 C 142.945312 176.546875 163.707031 162.273438 187.230469 152.425781 C 210.75 142.582031 236.601562 137.554688 264.714844 137.347656 C 282.800781 137.226562 298.96875 139.863281 313.199219 145.257812 C 330.132812 151.664062 338.617188 160.480469 338.699219 171.683594 L 338.699219 173.828125 C 338.699219 174.445312 338.578125 175.164062 338.351562 175.96875 C 337.421875 182.496094 334.890625 187.914062 330.75 192.242188 C 329.039062 194.09375 325.765625 196.464844 320.882812 199.347656 C 318.679688 200.582031 317.589844 201.820312 317.609375 203.035156 C 317.628906 204.25 318.722656 205.277344 320.945312 206.0625 C 323.644531 207.667969 326.835938 208.820312 330.523438 209.5 C 334.210938 210.203125 338.496094 210.511719 343.398438 210.488281 C 344.136719 210.488281 345.476562 210.488281 347.433594 210.46875 C 348.894531 210.46875 350.132812 210.34375 351.101562 210.140625 C 363.335938 208.429688 372.976562 204.167969 380.039062 197.390625 C 387.085938 190.613281 390.585938 182.539062 390.523438 173.144531 C 390.398438 154.792969 378.042969 140.191406 353.511719 129.355469 C 331.65625 119.71875 305.4375 115.019531 274.871094 115.226562 C 205.621094 115.722656 147.066406 138.359375 99.175781 183.15625 C 52.503906 226.925781 29.371094 278.6875 29.804688 338.417969 C 30.277344 405.914062 53.328125 460.417969 98.949219 501.878906 C 143.832031 542.761719 201.894531 562.929688 273.179688 562.433594 C 317.507812 562.125 355.921875 554.296875 388.382812 538.972656 C 424.015625 522.207031 441.75 500.871094 441.5625 474.980469 C 441.5 465.402344 437.21875 457.265625 428.753906 450.589844 C 422.511719 445.75 416.0625 442.929688 409.371094 442.167969 C 407.167969 442.167969 405.703125 442.601562 404.960938 443.421875 C 404.242188 444.246094 404.242188 445.257812 404.960938 446.472656 C 406.21875 449.726562 407.640625 453.539062 409.265625 457.925781 C 410.894531 462.289062 411.71875 467.441406 411.757812 473.351562 C 411.882812 491.703125 399.875 506.574219 375.734375 517.964844 C 351.59375 529.355469 321.914062 535.164062 286.671875 535.410156 C 237.484375 535.761719 193.097656 519.777344 153.46875 487.421875 C 117.773438 458.316406 96.023438 425.421875 88.175781 388.78125 C 100.082031 374.21875 115.777344 360.644531 135.28125 348.058594 Z M 135.324219 348.058594 " fill-opacity="1" fill-rule="nonzero"/><path fill="#c8831c" d="M 450.8125 103.035156 C 407.640625 60.378906 350.421875 37.867188 279.195312 35.476562 C 234.890625 33.992188 196.210938 40.253906 163.128906 54.238281 C 126.835938 69.542969 108.257812 90.140625 107.394531 116.03125 C 107.0625 125.609375 111.019531 133.910156 119.21875 140.914062 C 125.25 146 131.597656 149.070312 138.226562 150.121094 C 140.429688 150.203125 141.914062 149.832031 142.675781 149.046875 C 143.4375 148.246094 143.480469 147.234375 142.78125 146 C 141.667969 142.703125 140.390625 138.832031 138.949219 134.382812 C 137.507812 129.957031 136.867188 124.785156 137.074219 118.875 C 137.691406 100.542969 150.296875 86.164062 174.871094 75.765625 C 199.464844 65.363281 229.347656 60.75 264.570312 61.941406 C 313.714844 63.589844 357.445312 81.367188 395.714844 115.289062 C 429.226562 144.972656 429.019531 137.183594 456.351562 213.414062 C 458.328125 217.121094 459.542969 221.203125 459.832031 225.21875 C 460.59375 228.101562 460.902344 231.046875 460.675781 233.910156 C 461.253906 236.195312 461.605469 238.523438 461.5625 240.832031 C 462.222656 240.152344 462.921875 239.449219 463.539062 238.769531 C 464.261719 246.535156 464.695312 253.539062 464.859375 259.78125 C 465.023438 266 465.003906 271.765625 464.835938 277.058594 C 463.953125 303.753906 459.339844 328.140625 451.015625 350.199219 C 442.695312 372.261719 429.800781 391.664062 412.355469 408.429688 C 393.65625 426.371094 372.335938 439.777344 348.421875 448.675781 C 324.507812 457.554688 298.496094 461.550781 270.378906 460.601562 C 252.296875 460.003906 236.25 456.710938 222.265625 450.738281 C 205.621094 443.652344 197.488281 434.507812 197.855469 423.300781 C 197.855469 422.890625 197.898438 422.167969 197.941406 421.160156 C 197.941406 420.542969 198.105469 419.839844 198.371094 419.039062 C 199.566406 412.550781 202.328125 407.234375 206.632812 403.09375 C 208.402344 401.324219 211.800781 399.078125 216.785156 396.402344 C 219.03125 395.246094 220.164062 394.074219 220.207031 392.835938 C 220.246094 391.601562 219.175781 390.550781 217.011719 389.664062 C 214.375 387.933594 211.226562 386.660156 207.578125 385.835938 C 203.933594 384.988281 199.671875 384.496094 194.769531 384.332031 C 194.027344 384.308594 192.6875 384.269531 190.730469 384.1875 C 189.269531 384.144531 188.03125 384.1875 187.042969 384.371094 C 174.746094 385.585938 164.945312 389.4375 157.609375 395.925781 C 150.296875 402.414062 146.46875 410.34375 146.160156 419.714844 C 145.539062 438.070312 157.28125 453.144531 181.378906 464.96875 C 202.820312 475.472656 228.816406 481.242188 259.382812 482.269531 C 328.589844 484.578125 388.03125 464.332031 437.691406 421.507812 C 486.09375 379.675781 511.304688 328.882812 513.304688 269.171875 C 515.570312 201.714844 494.746094 146.328125 450.851562 103.035156 Z M 450.8125 103.035156 " fill-opacity="1" fill-rule="nonzero"/><path fill="#1f3c5d" d="M 700.183594 305.421875 L 604.425781 305.421875 L 604.425781 394.238281 L 711.140625 394.238281 L 711.140625 420.910156 L 572.625 420.910156 L 572.625 174.589844 L 705.640625 174.589844 L 705.640625 201.261719 L 604.40625 201.261719 L 604.40625 279.097656 L 700.160156 279.097656 L 700.160156 305.421875 Z M 700.183594 305.421875 " fill-opacity="1" fill-rule="nonzero"/><path fill="#1f3c5d" d="M 792.273438 343.445312 L 766.691406 420.933594 L 733.796875 420.933594 L 817.484375 174.609375 L 855.855469 174.609375 L 939.914062 420.933594 L 905.929688 420.933594 L 879.625 343.445312 Z M 873.054688 318.585938 L 848.933594 247.6875 C 843.457031 231.601562 839.789062 217 836.144531 202.746094 L 835.421875 202.746094 C 831.777344 217.371094 827.742188 232.34375 823.003906 247.339844 L 798.882812 318.605469 L 873.074219 318.605469 Z M 873.054688 318.585938 " fill-opacity="1" fill-rule="nonzero"/><path fill="#1f3c5d" d="M 971.714844 382.167969 C 985.96875 390.941406 1006.792969 398.253906 1028.726562 398.253906 C 1061.25 398.253906 1080.261719 381.078125 1080.261719 356.238281 C 1080.261719 333.210938 1067.101562 320.046875 1033.855469 307.257812 C 993.652344 293.003906 968.8125 272.179688 968.8125 237.453125 C 968.8125 199.082031 1000.613281 170.574219 1048.480469 170.574219 C 1073.691406 170.574219 1091.960938 176.421875 1102.941406 182.644531 L 1094.167969 208.597656 C 1086.132812 204.207031 1069.675781 196.898438 1047.390625 196.898438 C 1013.773438 196.898438 1000.984375 217 1000.984375 233.808594 C 1000.984375 256.835938 1015.957031 268.164062 1049.964844 281.324219 C 1091.632812 297.410156 1112.828125 317.515625 1112.828125 353.683594 C 1112.828125 391.683594 1084.691406 424.578125 1026.585938 424.578125 C 1002.839844 424.578125 976.886719 417.636719 963.722656 408.863281 L 971.757812 382.191406 Z M 971.714844 382.167969 " fill-opacity="1" fill-rule="nonzero"/><path fill="#1f3c5d" d="M 1211.097656 420.910156 L 1211.097656 316.382812 L 1133.257812 174.589844 L 1169.449219 174.589844 L 1204.175781 242.5625 C 1213.671875 261.199219 1220.984375 276.175781 1228.664062 293.355469 L 1229.40625 293.355469 C 1236.347656 277.265625 1244.753906 261.199219 1254.246094 242.5625 L 1289.695312 174.589844 L 1325.882812 174.589844 L 1243.289062 316.03125 L 1243.289062 420.914062 L 1211.097656 420.914062 Z M 1211.097656 420.910156 " fill-opacity="1" fill-rule="nonzero"/><path fill="#1f3c5d" d="M 1472.390625 420.910156 L 1392 174.589844 L 1426.359375 174.589844 L 1464.730469 295.925781 C 1475.316406 329.191406 1484.460938 359.160156 1491.03125 388.019531 L 1491.753906 388.019531 C 1498.695312 359.511719 1508.929688 328.449219 1519.890625 296.296875 L 1561.558594 174.609375 L 1595.542969 174.609375 L 1507.46875 420.933594 L 1472.390625 420.933594 Z M 1472.390625 420.910156 " fill-opacity="1" fill-rule="nonzero"/><path fill="#1f3c5d" d="M 1622.238281 174.589844 L 1654.039062 174.589844 L 1654.039062 420.914062 L 1622.238281 420.914062 Z M 1622.238281 174.589844 " fill-opacity="1" fill-rule="nonzero"/><path fill="#1f3c5d" d="M 1705.203125 382.167969 C 1719.457031 390.941406 1740.28125 398.253906 1762.214844 398.253906 C 1794.738281 398.253906 1813.75 381.078125 1813.75 356.238281 C 1813.75 333.210938 1800.589844 320.046875 1767.34375 307.257812 C 1727.140625 293.003906 1702.296875 272.179688 1702.296875 237.453125 C 1702.296875 199.082031 1734.101562 170.574219 1781.96875 170.574219 C 1807.179688 170.574219 1825.449219 176.421875 1836.429688 182.644531 L 1827.652344 208.597656 C 1819.621094 204.207031 1803.164062 196.898438 1780.878906 196.898438 C 1747.261719 196.898438 1734.472656 217 1734.472656 233.808594 C 1734.472656 256.835938 1749.445312 268.164062 1783.453125 281.324219 C 1825.121094 297.410156 1846.316406 317.515625 1846.316406 353.683594 C 1846.316406 391.683594 1818.179688 424.578125 1760.074219 424.578125 C 1736.324219 424.578125 1710.371094 417.636719 1697.210938 408.863281 L 1705.246094 382.191406 Z M 1705.203125 382.167969 " fill-opacity="1" fill-rule="nonzero"/><path fill="#1f3c5d" d="M 1929.589844 343.445312 L 1904.007812 420.933594 L 1871.113281 420.933594 L 1954.800781 174.609375 L 1993.171875 174.609375 L 2077.230469 420.933594 L 2043.246094 420.933594 L 2016.941406 343.445312 Z M 2010.351562 318.585938 L 1986.230469 247.6875 C 1980.753906 231.601562 1977.085938 217 1973.441406 202.746094 L 1972.71875 202.746094 C 1969.054688 217.371094 1965.035156 232.34375 1960.300781 247.339844 L 1936.179688 318.605469 L 2010.371094 318.605469 Z M 2010.351562 318.585938 " fill-opacity="1" fill-rule="nonzero"/></svg>