<?xml version="1.0" encoding="UTF-8"?>
<svg id="Camada_1" data-name="Camada 1" xmlns="http://www.w3.org/2000/svg" viewBox="0 0 1080 1080">
  <defs>
    <style>
      .cls-1 {
        fill: #1f3c5d;
      }

      .cls-2 {
        fill: #c8831c;
      }
    </style>
  </defs>
  <path class="cls-2" d="M100.7,591.62c11.37-7.21,23.16-12.24,35.39-15.1,7.24-1.63,18.91-3.55,35.01-5.74,16.1-2.19,27.53-3.91,34.3-5.14,12.94-2.47,24.16-5.61,33.65-9.45,12.69-5.14,22.13-10.8,28.33-16.98.4-.39.74-.81,1.11-1.21-.45-.22-.91-.43-1.35-.65-2.29-1.15-4.65-2.55-7.08-3.83-2.65,2.85-6.47,5.39-11.49,7.62-6.88,3.02-16.85,5.61-29.91,7.79-8.08,1.35-18.83,2.76-32.26,4.24-13.43,1.48-22.93,2.69-28.51,3.62-9.98,1.66-19.66,4-29.03,7.04-10.8,3.54-22.29,9.86-34.47,18.96-9.11,6.8-15.85,12.79-20.21,17.96-.5-3.76-.85-7.14-1.05-10.17-.2-3.02-.31-5.81-.33-8.39-.09-12.97,1.66-24.89,5.27-35.76,3.6-10.87,9.47-20.54,17.61-29.01,8.72-9.07,18.8-16,30.22-20.78,11.42-4.78,23.97-7.22,37.62-7.32,8.78-.06,16.63,1.22,23.54,3.84,8.22,3.11,12.34,7.39,12.38,12.83,0,.2,0,.55,0,1.04,0,.3-.06.65-.17,1.04-.45,3.17-1.68,5.8-3.69,7.9-.83.9-2.42,2.05-4.79,3.45-1.07.6-1.6,1.2-1.59,1.79s.54,1.09,1.62,1.47c1.31.78,2.86,1.34,4.65,1.67,1.79.34,3.87.49,6.25.48.36,0,1.01,0,1.96-.01.71,0,1.31-.06,1.78-.16,5.94-.83,10.62-2.9,14.05-6.19,3.42-3.29,5.12-7.21,5.09-11.77-.06-8.91-6.06-16-17.97-21.26-10.61-4.68-23.34-6.96-38.18-6.86-33.62.24-62.05,11.23-85.3,32.98-22.66,21.25-33.89,46.38-33.68,75.38.23,32.77,11.42,59.23,33.57,79.36,21.79,19.85,49.98,29.64,84.59,29.4,21.52-.15,40.17-3.95,55.93-11.39,17.3-8.14,25.91-18.5,25.82-31.07-.03-4.65-2.11-8.6-6.22-11.84-3.03-2.35-6.16-3.72-9.41-4.09-1.07,0-1.78.21-2.14.61-.35.4-.35.89,0,1.48.61,1.58,1.3,3.43,2.09,5.56.79,2.12,1.19,4.62,1.21,7.49.06,8.91-5.77,16.13-17.49,21.66-11.72,5.53-26.13,8.35-43.24,8.47-23.88.17-45.43-7.59-64.67-23.3-17.33-14.13-27.89-30.1-31.7-47.89,5.78-7.07,13.4-13.66,22.87-19.77Z"/>
  <path class="cls-2" d="M253.87,472.66c-20.96-20.71-48.74-31.64-83.32-32.8-21.51-.72-40.29,2.32-56.35,9.11-17.62,7.43-26.64,17.43-27.06,30-.16,4.65,1.76,8.68,5.74,12.08,2.93,2.47,6.01,3.96,9.23,4.47,1.07.04,1.79-.14,2.16-.52.37-.39.39-.88.05-1.48-.54-1.6-1.16-3.48-1.86-5.64-.7-2.15-1.01-4.66-.91-7.53.3-8.9,6.42-15.88,18.35-20.93,11.94-5.05,26.45-7.29,43.55-6.71,23.86.8,45.09,9.43,63.67,25.9,16.27,14.41,16.17,10.63,29.44,47.64.96,1.8,1.55,3.78,1.69,5.73.37,1.4.52,2.83.41,4.22.28,1.11.45,2.24.43,3.36.32-.33.66-.67.96-1,.35,3.77.56,7.17.64,10.2.08,3.02.07,5.82-.01,8.39-.43,12.96-2.67,24.8-6.71,35.51-4.04,10.71-10.3,20.13-18.77,28.27-9.08,8.71-19.43,15.22-31.04,19.54-11.61,4.31-24.24,6.25-37.89,5.79-8.78-.29-16.57-1.89-23.36-4.79-8.08-3.44-12.03-7.88-11.85-13.32,0-.2.02-.55.04-1.04,0-.3.08-.64.21-1.03.58-3.15,1.92-5.73,4.01-7.74.86-.86,2.51-1.95,4.93-3.25,1.09-.56,1.64-1.13,1.66-1.73s-.5-1.11-1.55-1.54c-1.28-.84-2.81-1.46-4.58-1.86-1.77-.41-3.84-.65-6.22-.73-.36-.01-1.01-.03-1.96-.07-.71-.02-1.31,0-1.79.09-5.97.59-10.73,2.46-14.29,5.61-3.55,3.15-5.41,7-5.56,11.55-.3,8.91,5.4,16.23,17.1,21.97,10.41,5.1,23.03,7.9,37.87,8.4,33.6,1.12,62.46-8.71,86.57-29.5,23.5-20.31,35.74-44.97,36.71-73.96,1.1-32.75-9.01-59.64-30.32-80.66Z"/>
  <g>
    <path class="cls-1" d="M374.94,559.92h-46.49v43.12h51.81v12.95h-67.25v-119.59h64.58v12.95h-49.15v37.79h46.49v12.78Z"/>
    <path class="cls-1" d="M419.65,578.38l-12.42,37.62h-15.97l40.63-119.59h18.63l40.81,119.59h-16.5l-12.77-37.62h-42.41ZM458.87,566.31l-11.71-34.42c-2.66-7.81-4.44-14.9-6.21-21.82h-.35c-1.77,7.1-3.73,14.37-6.03,21.65l-11.71,34.6h36.02Z"/>
    <path class="cls-1" d="M506.77,597.18c6.92,4.26,17.03,7.81,27.68,7.81,15.79,0,25.02-8.34,25.02-20.4,0-11.18-6.39-17.57-22.53-23.78-19.52-6.92-31.58-17.03-31.58-33.89,0-18.63,15.44-32.47,38.68-32.47,12.24,0,21.11,2.84,26.44,5.86l-4.26,12.6c-3.9-2.13-11.89-5.68-22.71-5.68-16.32,0-22.53,9.76-22.53,17.92,0,11.18,7.27,16.68,23.78,23.07,20.23,7.81,30.52,17.57,30.52,35.13,0,18.45-13.66,34.42-41.87,34.42-11.53,0-24.13-3.37-30.52-7.63l3.9-12.95Z"/>
    <path class="cls-1" d="M622.99,615.99v-50.75l-37.79-68.84h17.57l16.86,33c4.61,9.05,8.16,16.32,11.89,24.66h.36c3.37-7.81,7.45-15.61,12.06-24.66l17.21-33h17.57l-40.1,68.67v50.92h-15.61Z"/>
    <path class="cls-1" d="M749.85,615.99l-39.03-119.59h16.68l18.63,58.91c5.14,16.15,9.58,30.7,12.77,44.71h.35c3.37-13.84,8.34-28.92,13.66-44.53l20.23-59.08h16.5l-42.76,119.59h-17.03Z"/>
    <path class="cls-1" d="M838.04,496.4v119.59h-15.44v-119.59h15.44Z"/>
    <path class="cls-1" d="M862.88,597.18c6.92,4.26,17.03,7.81,27.68,7.81,15.79,0,25.02-8.34,25.02-20.4,0-11.18-6.39-17.57-22.53-23.78-19.52-6.92-31.58-17.03-31.58-33.89,0-18.63,15.44-32.47,38.68-32.47,12.24,0,21.11,2.84,26.44,5.86l-4.26,12.6c-3.9-2.13-11.89-5.68-22.71-5.68-16.32,0-22.53,9.76-22.53,17.92,0,11.18,7.27,16.68,23.78,23.07,20.23,7.81,30.52,17.57,30.52,35.13,0,18.45-13.66,34.42-41.87,34.42-11.53,0-24.13-3.37-30.52-7.63l3.9-12.95Z"/>
    <path class="cls-1" d="M971.82,578.38l-12.42,37.62h-15.97l40.63-119.59h18.63l40.81,119.59h-16.5l-12.77-37.62h-42.41ZM1011.03,566.31l-11.71-34.42c-2.66-7.81-4.44-14.9-6.21-21.82h-.35c-1.78,7.1-3.73,14.37-6.03,21.65l-11.71,34.6h36.02Z"/>
  </g>
</svg>