<?xml version="1.0" encoding="UTF-8" standalone="no"?><!DOCTYPE svg PUBLIC "-//W3C//DTD SVG 1.1//EN" "http://www.w3.org/Graphics/SVG/1.1/DTD/svg11.dtd"><svg width="100%" height="100%" viewBox="0 0 1600 1600" version="1.1" xmlns="http://www.w3.org/2000/svg" xmlns:xlink="http://www.w3.org/1999/xlink" xml:space="preserve" xmlns:serif="http://www.serif.com/" style="fill-rule:evenodd;clip-rule:evenodd;stroke-linejoin:round;stroke-miterlimit:2;"><g id="Fundo"><path d="M443.482,181.2l16.641,52.397c-0.277,0.247 -0.554,0.494 -0.831,0.742l-15.811,-53.139Z" style="fill-opacity:1;"/><g><g><path d="M1175.139,196.77c45.663,51.864 67.563,54.3 127.132,176.332c21.27,43.574 46.259,138.934 47.234,194.041c0.456,25.761 21.419,154.681 -164.544,427.514c-143.565,210.629 -212.123,263.123 -192.892,266.662c0.416,0.077 334.98,37.254 276.903,167.632c-64.315,144.381 -796.467,170.335 -928.407,11.966c-47.021,-56.44 8.836,-132.883 188.868,-165.827c35.98,-6.584 35.776,-6.151 71.914,-12.232c22.918,-3.857 4.469,-14.962 -48.246,-81.248c-335.44,-421.795 -317.552,-575.584 -288.656,-704.958c69.977,-313.308 429.64,-548.281 795.728,-361.088c40.278,20.595 106.224,74.112 114.968,81.208l-44.028,31.415c-50.782,-49.082 -126.915,-85.103 -161.176,-97.489c-233.251,-84.327 -407.041,30.865 -430.182,43.915c-79.2,44.665 -157.446,141.933 -199.736,246.075c-82.043,202.035 -22.195,338.064 128.785,563.163c114.465,170.658 321.992,400.036 329.814,401.169c14.676,2.126 237.176,-265.022 292.051,-343.959c124.26,-178.748 243.405,-346.85 197.877,-545.647c-40.323,-176.07 -147.913,-257.925 -157.434,-267.226l44.028,-31.415l43.568,1215.257c37.774,-59.054 -228.288,-105.401 -270.253,-103.902c-9.78,0.349 -8.77,3.453 -77.947,77.991c-53.938,58.118 -63.246,77.93 -90.96,53.106c-41.932,-37.561 -113.504,-133.602 -131.127,-131.733c-186.373,19.766 -308.868,74.095 -261.251,111.372c148.041,115.895 742.426,98.339 831.539,-6.833l-43.568,-1215.257Z" style="fill:#002455;fill-opacity:0.99;"/></g></g><path d="M1087.389,912.496c-319.403,284.313 -799.505,-9.157 -698.466,-420.347c71.556,-291.206 466.918,-449.009 725.323,-178.255c142.68,149.498 159.193,430.323 -26.858,598.601l-46.5,-24.983c4.312,-3.962 8.806,-7.723 13.119,-11.685c155.536,-142.889 156.092,-379.524 27.762,-523.342c-189.901,-212.819 -508.991,-138.244 -614.323,74.213c-182.393,367.892 254.026,717.533 573.442,460.814l46.5,24.983Z" style="fill:url(#_Linear1);"/></g><path d="M385.9,380.615c-0.921,1.589 -1.842,3.178 -2.762,4.767c0.023,-3.19 0.166,-3.158 2.762,-4.767Z" style="fill-opacity:0.71;"/><g><path d="M791.239,291.179l18.091,0c7.621,3.635 29.09,8.312 37.022,34.48c5.361,17.686 -1.368,68.889 4.122,70.483c7.063,2.051 58.987,10.647 67.419,10.846c4.468,0.105 77.663,-0.054 84.416,-0.069c12.271,-0.027 11.653,-4.555 27.734,-4.589c29.719,-0.062 51.049,-3.712 59.108,20.912c4.911,15.005 -5.446,36.874 -27.75,37.272c-37.749,0.674 -39.175,-3.902 -52.713,5.454c-24.484,16.921 -29.162,21.734 -36.51,22.629c-27.874,3.393 -87.071,8.185 -87.933,10.687c-0.845,2.453 0.481,205.204 -0.723,208.424c-4.613,12.338 -16.759,2.566 -16.881,5.964c-0.062,1.733 0.012,71.292 -0.015,72.605c-0.219,10.573 14.862,-0.677 17.181,13.311c0.919,5.541 -1.882,23.271 2.654,23.377c7.143,0.167 21.264,-3.216 21.537,11.557c0.1,5.413 1.165,62.953 -0.6,67.669c-0.233,0.624 -0.753,2.012 -5.2,6.502l-201.416,-0c-7.025,-7.575 -5.608,-8.646 -5.608,-42.815c0,-30.079 -2.163,-42.264 9.269,-42.844c9.495,-0.482 12.091,1.895 12.128,-2.984c0.092,-11.933 -2.883,-28.169 9.54,-28.914c5.616,-0.337 7.868,0.81 7.829,-4.859c-0.319,-46.47 0.839,-152.49 -0.78,-154.215c-3.968,-4.229 -16.385,-4.736 -16.587,-18.256c-0.32,-21.467 0.761,-113.73 -0.668,-115.247c-0.697,-0.74 -0.787,-0.585 -46.45,-5.652c-12.091,-1.342 -36.685,-3.852 -39.876,-4.178c-15.299,-1.562 -38.275,-28.184 -49.407,-28.257c-37.183,-0.244 -59.535,4.574 -68.283,-19.299c-6.291,-17.171 5.806,-38.487 27.273,-38.881c38.408,-0.705 41.049,0.043 44.473,1.012c22.865,6.474 23.319,3.183 97.844,3.698c3.943,0.027 69.246,-8.413 70.477,-12.533c3.264,-10.929 -7.032,-58.821 8.341,-81.903c9.855,-14.798 21.944,-17.109 30.939,-21.386l-20.174,102.039c0.499,8.327 1.555,15.601 -5.249,18.98c-2.413,1.198 -3.749,1.92 -0.7,5.918c25.693,33.695 51.662,19.281 54.239,34.004c3.143,17.957 -29.574,11.16 -49.462,-2.848c-25.071,-17.659 -23.749,-32.667 -31.782,-31.12c-10.05,1.936 -10.014,1.984 -10.886,2.145c-64.418,11.894 -123.422,3.355 -133.991,6.06c-1.37,0.351 -2.506,1.043 2.195,17.542c0.55,1.929 0.88,1.826 20.034,15.081c4.316,2.987 4.186,2.924 8.507,5.939c11.704,8.164 19.635,4.818 52.647,9.486c14.011,1.981 -3.254,-4.054 -21.384,-24.845c-4.353,-4.991 -2.163,-14.189 5.712,-15.668c12.365,-2.322 6.867,9.981 52.976,37.912c3.63,2.199 2.801,-6.762 2.69,-19.611c-0.063,-7.314 -11.698,-11.94 -5.867,-20.3c8.644,-12.394 21.544,5.565 25.337,9.074c32.375,29.956 84.926,25.975 91.408,24.686c2.414,-0.48 1.482,-8.332 1.63,-32.74c0.07,-11.475 14.178,-13.465 18.299,-4.611c2.198,4.723 0.398,181.071 1.006,190.272c0.201,3.035 14.2,2.093 15.36,1.534c1.964,-0.948 0.471,-103.602 0.924,-129.322c0.295,-16.776 24.989,-10.386 65.37,-52.936c10.864,-11.447 22.473,3.451 15.275,11.721c-19.239,22.107 -34.325,26.78 -22.685,25.103c22.954,-3.306 44.545,-3.302 50.359,-7.283c31.468,-21.548 31.823,-21.729 32.526,-24.931c1.684,-7.668 3.933,-15.872 1.79,-16.144c-4.744,-0.602 -80.088,-0.139 -87.052,-0.096c-13.135,0.081 -77.542,-10.878 -85.603,-13.889c-10.552,-3.941 -2.346,-28.297 -7.551,-18.372c-8.609,16.417 -32.127,20.65 -46.65,8.654c-7.263,-5.999 -7.046,-9.616 -7.803,-10.197c-0.247,-0.189 -0.566,0.65 -0.813,0.46l-0.806,0.342l20.174,-102.039l-53.473,320.803c13.126,7.956 125.278,75.043 125.832,74.96c1.379,-0.208 1.105,-0.854 1.1,-38.159c-0,-0.696 -0.001,-8.209 -0.97,-8.649c-6.273,-2.853 -34.587,7.253 -34.615,-11.858c-0.208,-140.654 1.166,-142.147 -1.489,-142.901c-2.558,-0.726 -26.051,3.306 -56.759,-4.763c-4.393,-1.154 -6.61,-2.875 -6.615,1.722c-0.08,74.64 1.335,77.284 -5.492,79.786c-8.369,3.067 -22.873,-2.25 -22.886,4.651c-0.081,42.801 0.025,43.079 1.894,45.212l53.473,-320.803l1.562,376.306c-37.136,-22.258 -37.304,-23.794 -39.036,-22.419c-0.844,0.67 -0.527,144.109 -0.151,144.966c0.893,2.035 92.311,0.915 92.772,0.612c1.421,-0.933 1.337,-89.569 0.045,-90.953c-0.981,-1.051 -46.211,-27.888 -53.63,-32.206l-1.562,-376.306l49.447,531.885c21.379,-0.374 21.364,0.366 23.042,-0.397c1.083,-0.493 0.965,-9.053 0.955,-9.844c-0.051,-3.665 -11.079,-2.478 -15.551,-2.478c-111.347,0 -111.398,-0.04 -112.062,0.281c-1.23,0.594 -1.182,8.66 -1.177,9.419c0.035,5.846 14.216,-0.243 16.849,9.619c5.336,19.984 -34.468,10.081 -37.594,13.178c-0.675,0.669 -0.675,8.988 -0.675,9.771c-0.001,34.536 -0.874,36.945 3.2,36.827c14.027,-0.406 168.41,0.429 170.185,-0.455c1.612,-0.803 0.728,-45.285 0.517,-45.675c-1.114,-2.071 -76.746,-0.537 -112.853,-1.027c-8.641,-0.117 -12.467,-10.335 -7.071,-16.084c2.815,-2.999 3.4,-3.44 72.234,-3.134l-49.447,-531.885l16.444,96.508c0.743,-0.723 5.23,-5.088 5.901,-11.535c1.736,-16.673 14.868,-23.089 15.491,-31.273c3.079,-40.439 -47.831,-45.133 -56.571,-13.152c-4.338,15.873 4.292,22.139 12.198,35.147c3.752,6.174 1.574,31.307 22.981,20.813l-16.444,-96.508l-257.271,132.674c-9.494,7.863 -3.353,17.07 8.819,17.316c2.488,0.05 29.588,0.599 31.104,-0.272c1.03,-0.592 -0.444,-19.292 -5.766,-19.326c-30.236,-0.192 -30.419,0.123 -34.157,2.281l257.271,-132.674l278.033,134.935c-0.758,-0.616 -2.044,-2.957 -7.847,-4.205c-6.625,-1.424 -27.828,-0.342 -30.244,-0.218c-1.438,0.073 -2.459,0.126 -5.218,17.219c-0.366,2.27 2.584,2.273 2.878,2.273c25.604,0.022 48.482,2.944 40.432,-15.069l-278.033,-134.935Z" style="fill:url(#_Linear2);"/><path d="M631.544,679.569c5.324,-3.787 11.114,-2.304 19.851,-2.497c6.468,-0.143 -3.444,-24.32 10.73,-26.281c14.32,-1.981 11.012,21.486 11.129,24.486c0.188,4.821 22.864,-3.593 25.446,9.62c2.921,14.944 -22.899,11.577 -23.33,11.591c-5.887,0.196 3.523,22.408 -9.55,25.924c-15.302,4.115 -11.955,-23.57 -11.985,-24.197c-0.13,-2.762 -12.927,-1.822 -14.571,-1.836c-9.977,-0.083 -15.152,-8.872 -7.721,-16.81Z" style="fill:url(#_Linear3);"/><path d="M787.127,673.427c3.579,5.153 3.122,5.655 3.12,92.347c-0,2.215 1.992,16.158 -7.366,18.417c-4.476,1.08 -11.727,-1.169 -11.904,-9.983c-0.042,-2.074 -0.042,-91.983 -0.007,-92.854c0.166,-4.201 3.546,-15.697 16.157,-7.927Z" style="fill:url(#_Linear4);"/><path d="M813.25,693.989c16.477,-5.006 14.046,12.95 14.046,18.717c0,66.104 1.281,69.623 -7.035,71.419c-15.441,3.335 -12.262,-18.886 -12.262,-30.412c-0,-53.379 -0.967,-54.847 5.252,-59.724Z" style="fill:url(#_Linear5);"/><path d="M917.261,320.068c0.965,-0.686 9.051,-6.434 14.765,0.898c3.406,4.37 0.529,14.311 3.89,14.534c2.408,0.159 4.831,-0.025 7.239,0.144c5.55,0.388 9.957,6.031 8.557,11.634c-2.352,9.415 -14.576,7.541 -15.698,7.589c-3.642,0.158 0.657,18.167 -10.939,18.37c-13.128,0.229 -10.133,-16.816 -10.781,-17.555c-0.52,-0.593 -18.743,0.286 -17.614,-10.818c1.141,-11.219 12.719,-9.271 15.185,-9.325c6.228,-0.135 -0.714,-5.363 5.396,-15.47Z" style="fill:url(#_Linear6);"/><path d="M597.644,615.641c-0.5,-0.767 -4.416,-6.777 -1.537,-11.341c4.121,-6.533 11.898,-4.959 14.214,-5.032c5.45,-0.171 -1.237,-16.528 10.801,-18.384c14.107,-2.174 9.264,18.18 13.334,18.367c2.005,0.092 4.016,-0.025 6.021,0.068c6.931,0.322 9.775,5.768 9.731,9.663c-0.13,11.583 -16.246,9.5 -16.838,9.905c-1.218,0.833 -0.001,20.734 -12.223,18.035c-10.32,-2.279 -8.107,-13.831 -8.19,-15.902c-0.222,-5.523 -5.406,1.254 -15.314,-5.38Z" style="fill:url(#_Linear7);"/></g><defs><linearGradient id="_Linear1" x1="0" y1="0" x2="1" y2="0" gradientUnits="userSpaceOnUse" gradientTransform="matrix(1077.646808,-1294.413282,1294.413282,1077.646808,203.448338,1501.811747)"><stop offset="0" style="stop-color:#000;stop-opacity:1"/><stop offset="1" style="stop-color:#004aad;stop-opacity:1"/></linearGradient><linearGradient id="_Linear2" x1="0" y1="0" x2="1" y2="0" gradientUnits="userSpaceOnUse" gradientTransform="matrix(-1110.36427,1311.852188,-1311.852188,-1110.36427,1261.562462,1.141466)"><stop offset="0" style="stop-color:#000;stop-opacity:1"/><stop offset="1" style="stop-color:#003275;stop-opacity:1"/></linearGradient><linearGradient id="_Linear3" x1="0" y1="0" x2="1" y2="0" gradientUnits="userSpaceOnUse" gradientTransform="matrix(-1110.36427,1311.852188,-1311.852188,-1110.36427,1261.562462,1.141466)"><stop offset="0" style="stop-color:#000;stop-opacity:1"/><stop offset="1" style="stop-color:#003275;stop-opacity:1"/></linearGradient><linearGradient id="_Linear4" x1="0" y1="0" x2="1" y2="0" gradientUnits="userSpaceOnUse" gradientTransform="matrix(-1110.36427,1311.852188,-1311.852188,-1110.36427,1261.562462,1.141466)"><stop offset="0" style="stop-color:#000;stop-opacity:1"/><stop offset="1" style="stop-color:#003275;stop-opacity:1"/></linearGradient><linearGradient id="_Linear5" x1="0" y1="0" x2="1" y2="0" gradientUnits="userSpaceOnUse" gradientTransform="matrix(-1110.36427,1311.852188,-1311.852188,-1110.36427,1261.562462,1.141466)"><stop offset="0" style="stop-color:#000;stop-opacity:1"/><stop offset="1" style="stop-color:#003275;stop-opacity:1"/></linearGradient><linearGradient id="_Linear6" x1="0" y1="0" x2="1" y2="0" gradientUnits="userSpaceOnUse" gradientTransform="matrix(-1110.36427,1311.852188,-1311.852188,-1110.36427,1261.562462,1.141466)"><stop offset="0" style="stop-color:#000;stop-opacity:1"/><stop offset="1" style="stop-color:#003275;stop-opacity:1"/></linearGradient><linearGradient id="_Linear7" x1="0" y1="0" x2="1" y2="0" gradientUnits="userSpaceOnUse" gradientTransform="matrix(-1110.36427,1311.852188,-1311.852188,-1110.36427,1261.562462,1.141466)"><stop offset="0" style="stop-color:#000;stop-opacity:1"/><stop offset="1" style="stop-color:#003275;stop-opacity:1"/></linearGradient></defs></svg>