<?xml version="1.0" encoding="UTF-8" standalone="no"?><!DOCTYPE svg PUBLIC "-//W3C//DTD SVG 1.1//EN" "http://www.w3.org/Graphics/SVG/1.1/DTD/svg11.dtd"><svg width="100%" height="100%" viewBox="0 0 1600 1600" version="1.1" xmlns="http://www.w3.org/2000/svg" xmlns:xlink="http://www.w3.org/1999/xlink" xml:space="preserve" xmlns:serif="http://www.serif.com/" style="fill-rule:evenodd;clip-rule:evenodd;stroke-linejoin:round;stroke-miterlimit:2;"><g id="Fundo"><path d="M443.482,181.2l16.641,52.397c-0.277,0.247 -0.554,0.494 -0.831,0.742l-15.811,-53.139Z" style="fill-opacity:1;"/><g><g><path d="M1175.139,196.77c45.663,51.864 67.563,54.3 127.132,176.332c21.27,43.574 46.259,138.934 47.234,194.041c0.456,25.761 21.419,154.681 -164.544,427.514c-143.565,210.629 -212.123,263.123 -192.892,266.662c0.416,0.077 334.98,37.254 276.903,167.632c-64.315,144.381 -796.467,170.335 -928.407,11.966c-47.021,-56.44 8.836,-132.883 188.868,-165.827c35.98,-6.584 35.776,-6.151 71.914,-12.232c22.918,-3.857 4.469,-14.962 -48.246,-81.248c-335.44,-421.795 -317.552,-575.584 -288.656,-704.958c69.977,-313.308 429.64,-548.281 795.728,-361.088c40.278,20.595 106.224,74.112 114.968,81.208l-44.028,31.415c-50.782,-49.082 -126.915,-85.103 -161.176,-97.489c-233.251,-84.327 -407.041,30.865 -430.182,43.915c-79.2,44.665 -157.446,141.933 -199.736,246.075c-82.043,202.035 -22.195,338.064 128.785,563.163c114.465,170.658 321.992,400.036 329.814,401.169c14.676,2.126 237.176,-265.022 292.051,-343.959c124.26,-178.748 243.405,-346.85 197.877,-545.647c-40.323,-176.07 -147.913,-257.925 -157.434,-267.226l44.028,-31.415l43.568,1215.257c37.774,-59.054 -228.288,-105.401 -270.253,-103.902c-9.78,0.349 -8.77,3.453 -77.947,77.991c-53.938,58.118 -63.246,77.93 -90.96,53.106c-41.932,-37.561 -113.504,-133.602 -131.127,-131.733c-186.373,19.766 -308.868,74.095 -261.251,111.372c148.041,115.895 742.426,98.339 831.539,-6.833l-43.568,-1215.257Z" style="fill:#002455;fill-opacity:0.99;"/></g></g><path d="M1087.389,912.496c-319.403,284.313 -799.505,-9.157 -698.466,-420.347c71.556,-291.206 466.918,-449.009 725.323,-178.255c142.68,149.498 159.193,430.323 -26.858,598.601l-46.5,-24.983c4.312,-3.962 8.806,-7.723 13.119,-11.685c155.536,-142.889 156.092,-379.524 27.762,-523.342c-189.901,-212.819 -508.991,-138.244 -614.323,74.213c-182.393,367.892 254.026,717.533 573.442,460.814l46.5,24.983Z" style="fill:url(#_Linear1);"/></g><path d="M385.9,380.615c-0.921,1.589 -1.842,3.178 -2.762,4.767c0.023,-3.19 0.166,-3.158 2.762,-4.767Z" style="fill-opacity:0.71;"/><path d="M1110.326,439.279l0,105.364c-0.743,1.864 -1.112,1.653 -1.479,3.712c-4.34,24.328 -22.678,39.1 -22.774,43.534c-0.567,26.378 1.231,195.71 -1.045,208.205c-7.997,43.913 -52.99,44.016 -58.871,44.03c-37.01,0.085 -450.446,1.036 -462.631,-0.373c-31.93,-3.692 -42.831,-29.005 -43.943,-31.297c-5.904,-12.163 -5.151,-12.716 -5.151,-140.647c0,-81.692 0.144,-81.954 -0.967,-83.253c-24.523,-28.676 -17.893,-32.232 -21.986,-42.6c-0.22,-0.557 -1.007,-0.754 -1.227,-1.31l0,-106.575c5.201,-8.753 2.702,-17 20.263,-32.346c16.43,-14.358 32.36,-12.121 91.762,-12.121c37.399,-0 39.307,0.64 39.399,-2.785c0.757,-28.257 -7.52,-65.381 29.926,-86.637c14.084,-7.995 14.997,-6.939 143.826,-6.939c97.325,-0 104.56,-2.071 122.122,12.7c27.778,23.364 20.393,50.061 21.353,80.876c0.097,3.099 2.573,2.781 3.059,2.784c92.809,0.639 107.131,-4.015 126.801,11.049c15.724,12.042 19.403,28.041 20.063,30.914c0.464,2.018 0.731,1.812 1.5,3.717l-571.645,122.998c3.997,4.001 39.893,48.61 190.708,61.685c5.748,0.498 6.668,2.18 7.669,-0.411c0.94,-2.433 -4.994,-31.291 16.654,-33.636c1.126,-0.122 91.812,-0.325 94.324,0.107c22.572,3.889 11.879,34.702 17.048,34.542c35.477,-1.1 208.288,-23.356 208.857,-90.804c0.767,-91.034 0.629,-91.924 -4.598,-97.752c-6.343,-7.073 -7.795,-6.074 -79.518,-6.074c-447.71,0 -447.789,-0.152 -451.582,1.262c-13.939,5.195 -11.615,16.97 -11.615,54.105c0,57.739 -1.931,59.561 12.054,76.976l571.645,-122.998l-259.177,246.312c-13.925,16.769 -27.086,24.807 -56.322,24.007c-21.304,-0.583 -46.073,-15.085 -54.536,-41.406c-1.786,-5.556 -1.398,-6.87 -7.198,-7.463c-27.209,-2.781 -74.378,-5.912 -128.494,-22.502c-28.945,-8.873 -52.094,-21.66 -53.204,-20.94c-1.05,0.682 -0.614,173.883 -0.233,175.685c3.114,14.743 17.659,14.81 19.626,14.819c0.244,0.001 458.904,0.001 459.002,0c2.107,-0.026 19.327,-0.237 19.895,-17.259c0.096,-2.892 0.022,-167.547 0.046,-168.379c0.255,-9.096 -4.673,-3.022 -12.916,0.699c-79.994,36.112 -172.773,35.84 -174.809,39.579c-1.745,3.205 -1.015,9.967 -10.858,23.16l259.177,-246.312l-191.31,-96.501c-8.899,-10.771 -10.942,-9.206 -58.777,-9.206l-108.998,0c-56.71,-0 -64.204,-2.053 -70.999,11.472c-4.352,8.662 -1.862,47.771 -1.529,48.053c0.668,0.565 0.804,0.504 232.392,0.504c7.797,-0 11.538,2.618 11.463,-5.187c-0.329,-34.425 1.801,-35.009 -3.551,-45.636l191.31,96.501l-326.811,229.48c14.808,10.499 43.012,4.094 43.356,-18.729c0.325,-21.554 0.852,-21.774 -0.394,-23.145c-0.809,-0.89 -1.069,-0.759 -48.592,-0.756c-5.838,0 -3.947,3.052 -4.28,21.456c-0.268,14.797 8.581,20.02 9.91,21.174l326.811,-229.48Z" style="fill:url(#_Linear2);"/><defs><linearGradient id="_Linear1" x1="0" y1="0" x2="1" y2="0" gradientUnits="userSpaceOnUse" gradientTransform="matrix(1077.646808,-1294.413282,1294.413282,1077.646808,203.448338,1501.811747)"><stop offset="0" style="stop-color:#000;stop-opacity:1"/><stop offset="1" style="stop-color:#004aad;stop-opacity:1"/></linearGradient><linearGradient id="_Linear2" x1="0" y1="0" x2="1" y2="0" gradientUnits="userSpaceOnUse" gradientTransform="matrix(-987.250528,1241.62085,-1241.62085,-987.250528,1299.984504,48.938184)"><stop offset="0" style="stop-color:#000;stop-opacity:1"/><stop offset="1" style="stop-color:#003275;stop-opacity:1"/></linearGradient></defs></svg>